<svg version="1.0" xmlns="http://www.w3.org/2000/svg"
 width="1024.000000pt" height="1024.000000pt" viewBox="0 0 1024.000000 1024.000000"
 preserveAspectRatio="xMidYMid meet">
<g transform="translate(0.000000,1024.000000) scale(0.100000,-0.100000)"
fill="none" stroke="red" strokeWidth="100px">
<path d="M0 5365 l0 -4875 21 12 c32 20 52 -13 45 -77 -3 -27 -6 -66 -6 -86 0
-34 -1 -35 -30 -31 l-30 4 0 -156 0 -156 5120 0 5120 0 0 5120 0 5120 -5120 0
-5120 0 0 -4875z m5434 2755 c210 -36 442 -125 634 -244 366 -227 630 -562
746 -947 59 -196 66 -281 66 -795 l0 -455 -25 -37 -25 -37 0 -292 0 -293 -27
-1 c-33 -1 -215 -1 -225 0 -4 1 -9 364 -10 809 l-3 807 -37 138 c-147 553
-589 947 -1178 1049 -109 18 -374 16 -490 -6 -385 -69 -717 -282 -943 -603
-106 -152 -166 -286 -215 -483 l-26 -105 -3 -802 c-4 -744 -6 -803 -21 -804
-59 -6 -201 -7 -219 -3 l-23 4 0 293 c0 286 -1 293 -23 327 -22 35 -22 40 -25
424 -2 215 1 451 7 527 28 381 172 706 435 986 297 316 693 513 1127 562 122
14 364 5 503 -19z m-89 -402 c173 -26 385 -110 544 -215 186 -123 390 -371
457 -557 19 -54 13 -45 -36 49 -60 112 -101 172 -184 267 -138 158 -308 278
-496 351 -173 67 -270 87 -465 94 -184 7 -293 -7 -454 -58 -101 -33 -256 -108
-355 -174 -140 -93 -301 -272 -401 -447 -28 -48 -53 -88 -58 -88 -12 0 60 138
119 226 59 89 201 239 287 302 185 137 442 238 667 262 87 10 274 4 375 -12z
m-2043 -2180 c1 -2 4 -559 8 -1238 l5 -1235 31 -87 c79 -221 237 -404 431
-502 115 -57 76 -56 1342 -56 1302 0 1225 -4 1373 72 238 123 411 384 439 665
7 66 9 505 7 1243 l-3 1140 148 0 148 0 -3 -1252 -3 -1253 -24 -85 c-106 -382
-391 -675 -768 -788 l-88 -27 -1179 -3 c-1271 -3 -1265 -3 -1418 49 -298 102
-558 358 -672 661 -58 153 -56 108 -56 1458 l0 1240 140 0 c77 0 141 -1 142
-2z m2748 -148 l0 -150 -917 -2 c-505 -2 -924 -1 -930 1 -10 2 -13 41 -13 152
l0 149 930 0 930 0 0 -150z m-766 -557 c33 -8 82 -26 110 -40 215 -109 339
-309 338 -543 -1 -152 -50 -272 -160 -391 l-63 -68 25 -113 c14 -62 44 -191
66 -287 22 -96 52 -226 65 -290 14 -64 27 -126 30 -138 l5 -23 -580 0 -580 0
5 23 c11 50 128 572 157 699 l30 137 -48 45 c-226 206 -229 599 -6 824 165
165 376 223 606 165z m-1009 -236 c33 -27 37 -87 9 -118 -16 -18 -33 -19 -364
-19 l-348 0 -6 34 c-9 49 3 114 23 119 9 3 161 5 338 6 322 1 322 1 348 -22z
m2395 -57 l0 -80 -349 0 -350 0 -15 22 c-33 47 -16 113 34 131 8 3 165 6 348
6 l332 1 0 -80z m-2294 -738 c36 -24 44 -88 14 -120 l-21 -22 -397 2 -396 3
-9 38 c-5 21 -6 53 -3 72 l7 35 397 0 c218 0 402 -4 408 -8z m2298 -22 c3 -17
3 -51 -1 -75 l-6 -45 -398 0 c-386 0 -400 1 -419 20 -24 24 -26 77 -4 108 l15
22 403 0 404 0 6 -30z m-6394 -3395 c0 -9 -14 -43 -31 -76 -17 -34 -28 -67
-25 -75 7 -19 55 -18 78 3 23 21 23 45 -1 67 -19 17 -18 18 4 42 l23 25 26
-24 c17 -16 22 -27 15 -34 -6 -6 -6 -19 1 -38 9 -23 8 -38 -5 -72 -29 -75
-121 -108 -178 -63 -14 11 -30 20 -35 20 -5 0 -12 10 -15 22 -6 22 8 58 22 58
5 0 26 30 47 68 20 37 41 73 47 80 13 17 27 15 27 -3z"/>
<path d="M5051 4570 c-66 -14 -123 -45 -174 -96 -106 -107 -133 -265 -67 -395
28 -53 105 -131 159 -158 33 -18 40 -26 36 -44 -2 -12 -30 -157 -60 -322 -31
-165 -59 -310 -62 -322 l-5 -23 241 0 c133 0 241 3 241 7 0 3 -18 97 -40 207
-86 433 -91 470 -73 481 162 102 234 218 219 358 -21 204 -216 348 -415 307z"/>
</g>
</svg>
